<svg width="1366" height="927" viewBox="0 0 1366 927" fill="none" xmlns="http://www.w3.org/2000/svg">
<g clip-path="url(#clip0_7075_184819)">
<rect width="1366" height="927" fill="#EDEDED"/>
<path d="M483.058 143V136.07L480.188 143H479.488L476.632 136.07V143H474.994V133.662H477.304L479.838 139.808L482.386 133.662H484.696V143H483.058ZM487.369 135.412C486.879 135.412 486.459 135.006 486.459 134.502C486.459 133.998 486.879 133.592 487.369 133.592C487.873 133.592 488.279 133.998 488.279 134.502C488.279 135.006 487.873 135.412 487.369 135.412ZM486.641 143V136.238H488.111V143H486.641ZM495.084 145.576H493.614V136.238H495.084V137.162C495.588 136.49 496.372 136.07 497.254 136.07C499.004 136.07 500.25 137.386 500.25 139.612C500.25 141.838 499.004 143.168 497.254 143.168C496.4 143.168 495.63 142.79 495.084 142.062V145.576ZM498.724 139.612C498.724 138.31 497.982 137.372 496.82 137.372C496.134 137.372 495.406 137.778 495.084 138.282V140.956C495.406 141.446 496.134 141.866 496.82 141.866C497.982 141.866 498.724 140.928 498.724 139.612ZM501.315 139.612C501.315 137.652 502.743 136.07 504.745 136.07C506.775 136.07 508.077 137.624 508.077 139.752V140.102H502.855C502.967 141.124 503.737 141.964 505.011 141.964C505.669 141.964 506.453 141.698 506.929 141.222L507.601 142.188C506.929 142.832 505.935 143.168 504.857 143.168C502.827 143.168 501.315 141.754 501.315 139.612ZM504.745 137.274C503.485 137.274 502.911 138.24 502.841 139.066H506.649C506.621 138.268 506.075 137.274 504.745 137.274ZM509.528 143V136.238H510.998V137.232C511.502 136.588 512.314 136.084 513.196 136.084V137.54C513.07 137.512 512.916 137.498 512.734 137.498C512.118 137.498 511.292 137.918 510.998 138.394V143H509.528ZM514.732 143V137.526H513.612V136.238H514.732V135.86C514.732 134.348 515.628 133.522 516.874 133.522C517.336 133.522 517.756 133.62 518.05 133.788L517.728 134.88C517.588 134.782 517.392 134.726 517.14 134.726C516.566 134.726 516.202 135.104 516.202 135.86V136.238H517.574V137.526H516.202V143H514.732ZM519.422 135.412C518.932 135.412 518.512 135.006 518.512 134.502C518.512 133.998 518.932 133.592 519.422 133.592C519.926 133.592 520.332 133.998 520.332 134.502C520.332 135.006 519.926 135.412 519.422 135.412ZM518.694 143V136.238H520.164V143H518.694ZM522.065 143V133.662H523.535V143H522.065Z" fill="#3483FA"/>
<path d="M537.898 134.852L537.102 135.648L540.455 139L537.102 142.352L537.898 143.148L542.046 139L537.898 134.852Z" fill="black" fill-opacity="0.55"/>
<path d="M558.516 143.168C555.828 143.168 553.714 141.208 553.714 138.338C553.714 135.468 555.828 133.508 558.516 133.508C560.168 133.508 561.316 134.306 562.058 135.356L561.078 135.902C560.546 135.118 559.58 134.544 558.516 134.544C556.472 134.544 554.918 136.112 554.918 138.338C554.918 140.55 556.472 142.132 558.516 142.132C559.58 142.132 560.546 141.572 561.078 140.774L562.072 141.32C561.288 142.384 560.168 143.168 558.516 143.168ZM566.465 143.168C564.407 143.168 563.119 141.572 563.119 139.612C563.119 137.652 564.407 136.07 566.465 136.07C568.523 136.07 569.811 137.652 569.811 139.612C569.811 141.572 568.523 143.168 566.465 143.168ZM566.465 142.23C567.907 142.23 568.705 140.998 568.705 139.612C568.705 138.24 567.907 137.008 566.465 137.008C565.023 137.008 564.211 138.24 564.211 139.612C564.211 140.998 565.023 142.23 566.465 142.23ZM579.685 143V138.408C579.685 137.554 579.307 137.008 578.439 137.008C577.739 137.008 576.997 137.512 576.647 138.044V143H575.597V138.408C575.597 137.554 575.233 137.008 574.351 137.008C573.665 137.008 572.937 137.512 572.573 138.058V143H571.523V136.238H572.573V137.218C572.853 136.784 573.763 136.07 574.757 136.07C575.793 136.07 576.381 136.63 576.577 137.33C576.955 136.714 577.865 136.07 578.845 136.07C580.077 136.07 580.735 136.756 580.735 138.114V143H579.685ZM587.393 143V142.048C586.875 142.636 585.993 143.168 584.985 143.168C583.571 143.168 582.829 142.482 582.829 141.012V136.238H583.879V140.69C583.879 141.88 584.481 142.23 585.391 142.23C586.217 142.23 587.001 141.754 587.393 141.208V136.238H588.443V143H587.393ZM595.104 143V138.576C595.104 137.386 594.502 137.008 593.592 137.008C592.766 137.008 591.982 137.512 591.59 138.058V143H590.54V136.238H591.59V137.218C592.066 136.658 592.99 136.07 593.998 136.07C595.412 136.07 596.154 136.784 596.154 138.254V143H595.104ZM598.769 135.272C598.391 135.272 598.069 134.964 598.069 134.572C598.069 134.18 598.391 133.858 598.769 133.858C599.161 133.858 599.483 134.18 599.483 134.572C599.483 134.964 599.161 135.272 598.769 135.272ZM598.251 143V136.238H599.301V143H598.251ZM601.004 139.612C601.004 137.61 602.362 136.07 604.378 136.07C605.61 136.07 606.338 136.574 606.856 137.246L606.156 137.89C605.708 137.274 605.134 137.008 604.434 137.008C602.992 137.008 602.096 138.114 602.096 139.612C602.096 141.11 602.992 142.23 604.434 142.23C605.134 142.23 605.708 141.95 606.156 141.348L606.856 141.992C606.338 142.664 605.61 143.168 604.378 143.168C602.362 143.168 601.004 141.628 601.004 139.612ZM612.555 143V142.23C611.995 142.846 611.225 143.168 610.315 143.168C609.167 143.168 607.949 142.398 607.949 140.928C607.949 139.416 609.167 138.702 610.315 138.702C611.239 138.702 612.009 138.996 612.555 139.626V138.408C612.555 137.498 611.827 136.98 610.847 136.98C610.035 136.98 609.377 137.274 608.775 137.918L608.285 137.19C609.013 136.434 609.881 136.07 610.987 136.07C612.415 136.07 613.605 136.714 613.605 138.352V143H612.555ZM612.555 141.572V140.298C612.149 139.738 611.435 139.458 610.693 139.458C609.713 139.458 609.027 140.074 609.027 140.942C609.027 141.796 609.713 142.412 610.693 142.412C611.435 142.412 612.149 142.132 612.555 141.572ZM615.318 139.612C615.318 137.61 616.676 136.07 618.692 136.07C619.924 136.07 620.652 136.574 621.17 137.246L620.47 137.89C620.022 137.274 619.448 137.008 618.748 137.008C617.306 137.008 616.41 138.114 616.41 139.612C616.41 141.11 617.306 142.23 618.748 142.23C619.448 142.23 620.022 141.95 620.47 141.348L621.17 141.992C620.652 142.664 619.924 143.168 618.692 143.168C616.676 143.168 615.318 141.628 615.318 139.612ZM623.16 135.272C622.782 135.272 622.46 134.964 622.46 134.572C622.46 134.18 622.782 133.858 623.16 133.858C623.552 133.858 623.874 134.18 623.874 134.572C623.874 134.964 623.552 135.272 623.16 135.272ZM622.642 143V136.238H623.692V143H622.642ZM628.74 143.168C626.682 143.168 625.394 141.572 625.394 139.612C625.394 137.652 626.682 136.07 628.74 136.07C630.798 136.07 632.086 137.652 632.086 139.612C632.086 141.572 630.798 143.168 628.74 143.168ZM628.74 142.23C630.182 142.23 630.98 140.998 630.98 139.612C630.98 138.24 630.182 137.008 628.74 137.008C627.298 137.008 626.486 138.24 626.486 139.612C626.486 140.998 627.298 142.23 628.74 142.23ZM638.362 143V138.576C638.362 137.386 637.76 137.008 636.85 137.008C636.024 137.008 635.24 137.512 634.848 138.058V143H633.798V136.238H634.848V137.218C635.324 136.658 636.248 136.07 637.256 136.07C638.67 136.07 639.412 136.784 639.412 138.254V143H638.362ZM641.117 139.612C641.117 137.652 642.517 136.07 644.449 136.07C646.493 136.07 647.697 137.666 647.697 139.696V139.962H642.223C642.307 141.236 643.203 142.3 644.659 142.3C645.429 142.3 646.213 141.992 646.745 141.446L647.249 142.132C646.577 142.804 645.667 143.168 644.561 143.168C642.559 143.168 641.117 141.726 641.117 139.612ZM644.435 136.938C642.993 136.938 642.279 138.156 642.223 139.192H646.661C646.647 138.184 645.975 136.938 644.435 136.938ZM648.81 142.104L649.356 141.348C649.804 141.866 650.658 142.314 651.582 142.314C652.618 142.314 653.178 141.824 653.178 141.152C653.178 140.41 652.352 140.214 651.442 139.99C650.294 139.724 648.992 139.416 648.992 138.016C648.992 136.966 649.902 136.07 651.512 136.07C652.66 136.07 653.472 136.504 654.018 137.05L653.528 137.778C653.122 137.288 652.38 136.924 651.512 136.924C650.588 136.924 650.014 137.386 650.014 137.988C650.014 138.632 650.784 138.814 651.666 139.024C652.842 139.29 654.2 139.626 654.2 141.124C654.2 142.258 653.29 143.168 651.54 143.168C650.434 143.168 649.496 142.832 648.81 142.104Z" fill="black" fill-opacity="0.9"/>
<g filter="url(#filter0_d_7075_184819)">
<path d="M474 314C474 310.686 476.686 308 480 308H1103C1106.31 308 1109 310.686 1109 314V791C1109 794.314 1106.31 797 1103 797H480C476.686 797 474 794.314 474 791V314Z" fill="white"/>
</g>
<g filter="url(#filter2_d_7075_184819)">
<path d="M474 815C474 811.686 476.686 809 480 809H1103C1106.31 809 1109 811.686 1109 815V920C1109 923.314 1106.31 926 1103 926H480C476.686 926 474 923.314 474 920V815Z" fill="white"/>
</g>
<g filter="url(#filter4_d_7075_184819)">
<g clip-path="url(#clip3_7075_184819)">
<rect width="249" height="2577" transform="translate(0 100)" fill="#F5F5F5"/>
<g filter="url(#filter5_d_7075_184819)">
<rect y="100" width="250" height="3448" fill="#F5F5F5"/>
</g>
</g>
</g>
<g clip-path="url(#clip4_7075_184819)">
<rect x="-80" width="1446" height="101" fill="#FFE600"/>
<rect x="50.6328" y="74" width="99.4816" height="11" rx="4" fill="#E1CE1A"/>
<rect x="230.503" y="74" width="86" height="11" rx="4" fill="#E1CE1A"/>
<rect x="333.503" y="74" width="86" height="11" rx="4" fill="#E1CE1A"/>
<rect x="436.503" y="74" width="50" height="11" rx="4" fill="#E1CE1A"/>
<rect x="503.503" y="74" width="91" height="11" rx="4" fill="#E1CE1A"/>
<rect x="611.503" y="74" width="94" height="11" rx="4" fill="#E1CE1A"/>
<rect x="722.503" y="74" width="44" height="11" rx="4" fill="#E1CE1A"/>
<rect x="783.503" y="74" width="48" height="11" rx="4" fill="#E1CE1A"/>
<rect x="902.758" y="74" width="53.2578" height="11" rx="4" fill="#E1CE1A"/>
<rect x="978.122" y="74" width="80.3892" height="11" rx="4" fill="#E1CE1A"/>
<rect x="1080.62" y="74" width="69.3356" height="11" rx="4" fill="#E1CE1A"/>
<rect x="933.908" y="23" width="302.464" height="11" rx="4" fill="#E1CE1A"/>
<ellipse cx="887.182" cy="79.5" rx="9.54621" ry="9.5" fill="#E1CE1A"/>
<ellipse cx="1185.63" cy="79.5" rx="9.54621" ry="9.5" fill="#E1CE1A"/>
<ellipse cx="1224.82" cy="79.5" rx="9.54621" ry="9.5" fill="#E1CE1A"/>
<rect x="237.537" y="14" width="630.05" height="28" rx="8" fill="white"/>
</g>
</g>
<defs>
<filter id="filter0_d_7075_184819" x="472" y="307" width="639" height="493" filterUnits="userSpaceOnUse" color-interpolation-filters="sRGB">
<feFlood flood-opacity="0" result="BackgroundImageFix"/>
<feColorMatrix in="SourceAlpha" type="matrix" values="0 0 0 0 0 0 0 0 0 0 0 0 0 0 0 0 0 0 127 0" result="hardAlpha"/>
<feOffset dy="1"/>
<feGaussianBlur stdDeviation="1"/>
<feColorMatrix type="matrix" values="0 0 0 0 0 0 0 0 0 0 0 0 0 0 0 0 0 0 0.12 0"/>
<feBlend mode="normal" in2="BackgroundImageFix" result="effect1_dropShadow_7075_184819"/>
<feBlend mode="normal" in="SourceGraphic" in2="effect1_dropShadow_7075_184819" result="shape"/>
</filter>
<filter id="filter2_d_7075_184819" x="472" y="808" width="639" height="121" filterUnits="userSpaceOnUse" color-interpolation-filters="sRGB">
<feFlood flood-opacity="0" result="BackgroundImageFix"/>
<feColorMatrix in="SourceAlpha" type="matrix" values="0 0 0 0 0 0 0 0 0 0 0 0 0 0 0 0 0 0 127 0" result="hardAlpha"/>
<feOffset dy="1"/>
<feGaussianBlur stdDeviation="1"/>
<feColorMatrix type="matrix" values="0 0 0 0 0 0 0 0 0 0 0 0 0 0 0 0 0 0 0.12 0"/>
<feBlend mode="normal" in2="BackgroundImageFix" result="effect1_dropShadow_7075_184819"/>
<feBlend mode="normal" in="SourceGraphic" in2="effect1_dropShadow_7075_184819" result="shape"/>
</filter>
<filter id="filter4_d_7075_184819" x="-2" y="99" width="253" height="2581" filterUnits="userSpaceOnUse" color-interpolation-filters="sRGB">
<feFlood flood-opacity="0" result="BackgroundImageFix"/>
<feColorMatrix in="SourceAlpha" type="matrix" values="0 0 0 0 0 0 0 0 0 0 0 0 0 0 0 0 0 0 127 0" result="hardAlpha"/>
<feOffset dy="1"/>
<feGaussianBlur stdDeviation="1"/>
<feColorMatrix type="matrix" values="0 0 0 0 0 0 0 0 0 0 0 0 0 0 0 0 0 0 0.12 0"/>
<feBlend mode="normal" in2="BackgroundImageFix" result="effect1_dropShadow_7075_184819"/>
<feBlend mode="normal" in="SourceGraphic" in2="effect1_dropShadow_7075_184819" result="shape"/>
</filter>
<filter id="filter5_d_7075_184819" x="-2" y="99" width="254" height="3452" filterUnits="userSpaceOnUse" color-interpolation-filters="sRGB">
<feFlood flood-opacity="0" result="BackgroundImageFix"/>
<feColorMatrix in="SourceAlpha" type="matrix" values="0 0 0 0 0 0 0 0 0 0 0 0 0 0 0 0 0 0 127 0" result="hardAlpha"/>
<feOffset dy="1"/>
<feGaussianBlur stdDeviation="1"/>
<feColorMatrix type="matrix" values="0 0 0 0 0 0 0 0 0 0 0 0 0 0 0 0 0 0 0.12 0"/>
<feBlend mode="normal" in2="BackgroundImageFix" result="effect1_dropShadow_7075_184819"/>
<feBlend mode="normal" in="SourceGraphic" in2="effect1_dropShadow_7075_184819" result="shape"/>
</filter>
<clipPath id="clip0_7075_184819">
<rect width="1366" height="927" fill="white"/>
</clipPath>
<clipPath id="clip3_7075_184819">
<rect width="249" height="2577" fill="white" transform="translate(0 100)"/>
</clipPath>
<clipPath id="clip4_7075_184819">
<rect width="1366" height="101" fill="white"/>
</clipPath>
</defs>
</svg>